<svg width="188" height="146" xmlns="http://www.w3.org/2000/svg">
 <g>
  <title>background</title>
  <rect x="-1" y="-1" width="190" height="148" id="canvas_background" fill="none"/>
 </g>

 <g>
  <title>Layer 1</title>
  <g id="svg_1">
   <path d="m137.25065,21.1c0,2.5 0.6,4.3 1.8,5.6c1.3,1.2 2.9,1.8 4.8,1.8c1.8,0 3.3,-0.6 4.6,-1.8c1.3,-1.3 2,-3.1 2,-5.6c0,-2.6 -0.7,-4.4 -2,-5.6c-1.3,-1.3 -2.8,-1.9 -4.6,-1.9c-1.9,0 -3.5,0.6 -4.8,1.8c-1.2,1.2 -1.8,3.1 -1.8,5.7z" class="g2_1" id="svg_2" fill="#ff534d"/>
   <path d="m149.45065,133.1l-13.1,0l-53.9,-82.7l-0.5,0c0.7,9.7 1,18.6 1,26.7l1.2,27l-10.5,0l1.9,-69.3l9.8,-0.3l53.8,82.4l0.5,0c-0.1,-1.2 -0.3,-5.1 -0.6,-11.7c-0.3,-6.5 0.64024,-11.55008 0.3369,-14.5523c-0.70778,-18.36111 -0.7369,-37.28103 -0.7369,-56.1477l10.8,0l0,98.6zm-65,-98.5l0,63.8c0,11.3 -3.4,20.1 -10.2,26.5c-6.8,6.5 -16.1,9.7 -28,9.7c-11.8,0 -21,-3.2 -27.5,-9.7c-6.5,-6.5 -9.8,-15.4 -9.8,-26.7l0,-63.6l11.5,0l0,64.4c0,8.2 2.2,14.5 6.7,18.9c4.5,4.4 11.1,6.6 19.9,6.6c8.3,0 14.7,-2.2 19.2,-6.6c4.5,-4.4 6.7,-10.8 6.7,-19.1l0,-64.2l11.5,0z" class="g3_1" id="svg_3" fill="#0c7bb2"/>
   <path id="svg_5" d="m171.93332,57.61021c3.3,0 6.3,0.2 8.9,0.8l-1.6,10.4c-3,-0.7 -5.7,-1 -8.1,-1c-6,0 -11.1,2.4 -15.3,7.2c-4.3,4.9 -6.4,11 -6.4,18.2l0,39.7c-3.69963,0 -5.98369,0.30334 -9.68332,0.30334c-0.67408,-25.17223 -0.94371,-49.73779 -1.01112,-74.40445c2.93148,0.0337 7.79448,-0.02039 10.72596,0.01331c-0.24384,4.59593 0.12689,9.01627 -0.11695,13.61221l-0.01457,0.17559c2.7,-4.8 6,-8.5 9.9,-11.1c3.9,-2.6 8.1,-3.9 12.7,-3.9z" fill="#2ab8ff"/>
  </g>
 </g>
</svg>